<svg viewBox="0 0 200 210" xmlns="http://www.w3.org/2000/svg">
  <!-- Bee Champs favicon — zjednodušená včela s korunou -->
  <path fill="#0E0E10" d="
    M 73,58 L 73,43
    L 84,53 L 100,22 L 116,53
    L 127,43 L 127,58
    L 119,58 L 113,47 L 100,30 L 87,47 L 81,58
    Z
  "/>
  <polygon fill="#ED8E11" points="100,56 112,64 112,77 100,85 88,77 88,64"/>
  <path fill="none" stroke="#0E0E10" stroke-width="7" stroke-linejoin="miter"
    d="M 85,66 L 8,54 L 6,82 L 50,100 L 79,94 Z"/>
  <path fill="none" stroke="#0E0E10" stroke-width="7" stroke-linejoin="miter"
    d="M 115,66 L 192,54 L 194,82 L 150,100 L 121,94 Z"/>
  <polygon fill="#ED8E11" points="100,57 131,84 100,111 69,84"/>
  <polygon fill="none" stroke="#0E0E10" stroke-width="7" stroke-linejoin="miter"
    points="100,57 131,84 100,111 69,84"/>
  <path fill="#ED8E11" d="M 77,111 L 123,111 L 115,148 L 85,148 Z"/>
  <path fill="none" stroke="#0E0E10" stroke-width="7" stroke-linejoin="miter"
    d="M 77,111 L 123,111 L 115,148 L 85,148 Z"/>
  <line x1="79" y1="129" x2="121" y2="129" stroke="#0E0E10" stroke-width="6"/>
  <path fill="#ED8E11" d="M 85,148 L 115,148 L 108,172 L 92,172 Z"/>
  <path fill="none" stroke="#0E0E10" stroke-width="6" stroke-linejoin="miter"
    d="M 85,148 L 115,148 L 108,172 L 92,172 Z"/>
  <path fill="#ED8E11" d="M 92,172 L 108,172 L 100,191 Z"/>
</svg>
